<svg xmlns="http://www.w3.org/2000/svg" viewBox="0 0 420 84" fill="none" role="img" aria-labelledby="awpLogoTitle">
  <title id="awpLogoTitle">awhitepen</title>
  <g stroke="#F2EFE8" stroke-linecap="round" stroke-linejoin="round">
    <path d="M210.5 54.8C219.8 53.1 229.3 50.5 238.9 50.7C248.2 50.9 256.8 53 263.8 55" stroke-width="2.5" />

    <g transform="translate(256 7) rotate(34 28 28)">
      <rect x="22" y="4" width="12" height="12" rx="3" stroke-width="4" />
      <path d="M21 17H35" stroke-width="3.2" />
      <path
        d="M28 17.4C34.1 17.4 38.4 21.9 38.9 27.8L30.8 47.8C30.3 49.1 29.3 49.9 28 49.9C26.7 49.9 25.7 49.1 25.2 47.8L17.1 27.8C17.6 21.9 21.9 17.4 28 17.4Z"
        stroke-width="4"
      />
      <path d="M28 47.1V27.2" stroke-width="2.8" />
      <circle cx="28" cy="24.9" r="2.4" stroke-width="2.5" />
      <path d="M28.2 50.4C26.8 52.2 24.8 53.6 22.4 54.2" stroke-width="2.3" />
    </g>
  </g>

  <text
    x="16"
    y="57"
    fill="#F2EFE8"
    font-size="54"
    font-family="'Snell Roundhand', 'Apple Chancery', 'Brush Script MT', 'Lucida Handwriting', cursive"
    font-style="italic"
    letter-spacing="0.2"
  >
    awhitepen
  </text>
</svg>
